<svg enable-background="new 0 0 96.1 96.1" viewBox="0 0 96.1 96.1" xmlns="http://www.w3.org/2000/svg"><path d="m0 0h96v96h-96z"/><path d="m73.5 18.7v13.4c0 1.7-.7 2.7-2.1 3.6s-3.3.9-4.8.2c-2.5-1.1-4.8-2.1-7.1-2.9v6.4c5.5 1.4 9.2 3.2 12.2 6 4 3.8 6 9 6 15.6 0 .8 0 1.6-.1 2.3h13.3v-57.2h-31.4v5.4c3.5.5 7.1 1.3 10.8 2.3 2.2.5 3.2 2.7 3.2 4.9z" fill="#bd4031"/><path d="m54.5 32c-1.8-.3-3.5-.4-5.1-.4-4.1 0-6.1.7-6.6.9-.7.3-1.4 1.7-.6 2.5.2.2.4.4.6.5h11.6v-3.5z" fill="#aec562"/><path d="m25.8 16.7c5-4.1 12.2-6.2 21.1-6.2 2.5 0 5.1.1 7.7.4v-4.8h-48.5v29.4h12c0-.1 0-.2 0-.3 0-7.8 2.4-14.2 7.7-18.5z" fill="#aec562"/><path d="m34.9 84.9c-.8-.1-1.6-.3-2.4-.5v6.5h22v-5.1c-2 .2-4.2.3-6.6.3-4.3.1-8.7-.3-13-1.2z" fill="#fef205"/><path d="m36.6 64.3c3.3 1 6.5 1.5 9.6 1.5 3.4 0 5.2-1 5.8-1.7.7-.7.9-1.6.3-2.3-.7-.8-1.1-1.2-5.6-2.2l-6.4-1.4c-2.9-.6-5.5-1.4-7.8-2.2v6.8c1.4.6 2.7 1.1 4.1 1.5z" fill="#fef205"/><path d="m18.6 76.7v-13.8c0-1.7.6-3 2.1-3.8 1.5-.9 3.5-.6 5 .2.6.3 1.1.6 1.7.9v-6.7c-1.3-.8-2.5-1.8-3.6-2.8-2.7-2.8-4.5-6.2-5.3-10.2h-12.4v50.4h21.4v-7.8c-1.9-.5-3.8-1.1-5.6-1.8-2-.7-3.3-2.5-3.3-4.6z" fill="#d09b75"/><path d="m69.7 80c-2.8 2.3-6.2 3.9-10.2 4.9v6h31.4v-23.4h-13.8c-1 5.3-3.5 9.3-7.4 12.5z" fill="#9ec8e0"/><path d="m68.9 18.2v13.7c-3.5-1.6-7-2.8-10.3-3.6-3.4-.8-6.5-1.2-9.5-1.2-4 0-6.9.5-8.8 1.6s-2.8 2.8-2.8 5.1c0 1.7.6 3.1 1.9 4 1.3 1 3.6 1.8 6.9 2.5l7.1 1.4c7.1 1.4 12.2 3.6 15.2 6.6 3 2.9 4.5 7.1 4.5 12.5 0 7.1-2.1 12.4-6.3 15.9-4.2 3.6-10.6 5.3-19.2 5.3-4.1 0-8.2-.4-12.3-1.2s-8.2-1.9-12.3-3.5v-14c4.1 2.2 8.1 3.8 11.9 5 3.8 1.1 7.5 1.7 11.1 1.7s6.4-.6 8.3-1.8 2.9-2.9 2.9-5.2c0-2-.7-3.6-2-4.7s-3.9-2.1-7.8-2.9l-6.4-1.5c-6.4-1.4-11.1-3.6-14.1-6.6s-4.5-7.1-4.5-12.2c0-6.4 2.1-11.4 6.2-14.8 4.1-3.5 10.1-5.2 17.8-5.2 3.5 0 7.2.3 10.9.8 3.8.5 7.6 1.3 11.6 2.3z" fill="#fff"/></svg>